<svg width="160" height="32" viewBox="0 0 160 32" fill="none" xmlns="http://www.w3.org/2000/svg">
<mask id="mask0_604_4986" style="mask-type:alpha" maskUnits="userSpaceOnUse" x="0" y="6" width="160" height="20">
<path d="M0 6H159.45V25.8499H0V6Z" fill="white"/>
</mask>
<g mask="url(#mask0_604_4986)">
<path fill-rule="evenodd" clip-rule="evenodd" d="M159.3 25.85L159.275 25.1069H0.15L0.15625 25.85H159.3ZM59.375 17.6819C57.925 18.0063 56.5688 18.3069 56.5688 19.2938C56.5688 20.175 57.2937 20.4312 57.9562 20.4312C59.7625 20.4312 60.5938 18.8375 60.85 17.2131C60.3731 17.4119 59.8794 17.5688 59.375 17.6819ZM65.7375 15.3313L64.1312 22.5312H59.85L60.1437 21.1313C58.7681 22.3 57.0106 22.9206 55.2063 22.875C53.5312 22.875 51.7875 21.9937 51.7875 20.0688C51.8306 18.8238 52.4494 17.6687 53.4625 16.9438C54.9562 15.9 57.1063 15.6938 59.3937 15.425C60.6437 15.2625 61.525 14.9688 61.525 14.0625C61.525 13.3375 60.6188 13.1813 60.075 13.1813C59.1938 13.1813 58.4 13.45 58.0875 14.3375H53.75C54.5875 11.075 58.125 10.5875 61 10.5875C62.9688 10.5875 66 10.7 66 13.325C65.9987 14.0144 65.9144 14.7 65.75 15.3688L65.7375 15.3313ZM51.7625 15.5125L50.1813 22.5312H45.6937L47.1 16.3938C47.1731 16.0825 47.2131 15.7638 47.2187 15.4438C47.31 14.7594 46.8294 14.1313 46.145 14.04C46.0406 14.0262 45.9356 14.025 45.8313 14.0375C44.3813 14.0375 43.6125 15.3562 43.3313 16.575L41.9688 22.5312H37.5L40.15 10.8875H44.2L43.75 12.9938C44.8812 11.7063 46.7188 10.55 48.4375 10.55C50.5875 10.55 52.0187 11.525 52.0187 13.725C52.0106 14.3275 51.9331 14.9275 51.7875 15.5125H51.7625ZM31.7438 13.2C30.3738 13.1656 29.1856 14.1425 28.9562 15.4938H33.5125C33.5425 15.3269 33.5588 15.1575 33.5625 14.9875C33.6063 14.0425 32.875 13.2419 31.93 13.1988C31.8681 13.1956 31.8056 13.1963 31.7438 13.2ZM37.5 17.6125H28.5063C28.455 17.8406 28.4262 18.0731 28.4187 18.3069C28.3969 19.3419 29.2187 20.1988 30.2537 20.2206C30.2962 20.2213 30.3388 20.2206 30.3813 20.2188C31.1906 20.2288 31.9562 19.8525 32.4437 19.2063H36.725C35.2812 21.8563 32.5438 22.875 29.6875 22.875C26.625 22.875 24.025 21.4938 24.025 18.3125C24.0931 13.9569 27.6794 10.4812 32.0344 10.5494C32.05 10.5494 32.0656 10.55 32.0812 10.55C35.575 10.55 37.75 12.525 37.75 15.7125C37.7337 16.345 37.6494 16.9731 37.5 17.5875V17.6125ZM24.0938 13.3813H21.825L20.8562 17.7562C20.7787 18.005 20.7388 18.2644 20.7375 18.525C20.7375 19.2938 21.4625 19.3687 22.125 19.3687H22.6875L21.9875 22.4937C21.1 22.5375 20.2375 22.5875 19.3562 22.5875C17.9062 22.5875 15.8687 22.6569 15.8687 20.6812C15.8969 19.9437 16.01 19.2119 16.2062 18.5L17.3687 13.4H15.6875L16.25 10.9H18L18.8125 7.2125H23.2312L22.3937 10.9H24.6625L24.0938 13.4V13.3813ZM12.1562 10.7125C11.6062 9.64562 10.4794 9.00375 9.28125 9.075C7.7875 9.075 6.925 9.7 6.925 10.4812C6.925 11.4625 8.5125 11.9125 10.2812 12.5C12.8812 13.4063 14.9 14.4688 14.9 16.7563C14.9 20.2438 11.0938 22.9625 6.26875 22.9625C3.55 22.9625 0.24375 21.625 0 18.7063L3.8 18.025C4.05 19.1812 5.725 19.75 6.74375 19.75C7.925 19.75 9.75625 19.3875 9.75625 17.9875C9.75625 16.9625 8.08125 16.5125 6.3125 15.925C4.54375 15.3375 1.9375 14.2875 1.9375 11.7562C1.94375 7.49375 6.49375 6 9.55625 6C11.875 6 15.2625 6.99375 15.8562 9.9125L12.1562 10.7125ZM154.55 15.15H156.625C158.3 15.25 159.45 15.8938 159.45 17.9812V19.75C159.45 21.9062 158.294 22.4938 156.625 22.5938H145.812V19.9937H155.769C155.769 19.9937 156.35 20.0625 156.331 19.3313V18.7063C156.331 18.0194 155.8 18.0813 155.8 18.0813H147.932C146.571 18.0944 145.459 17.0025 145.446 15.6419C145.445 15.5381 145.451 15.4344 145.463 15.3313V13.7063C145.463 11.5312 146.712 10.8625 148.376 10.8625H159.157V13.4187H149.375C149.375 13.4187 148.619 13.35 148.619 13.9938V14.65C148.619 15.225 149.469 15.15 149.469 15.15H154.55ZM95.2375 20.0875V10.8625H92.3375V22.5625H104.575V20.0875H95.2375ZM135.019 10.8625L129.919 19.4875L124.844 10.8625H121.406L128.3 22.5625H131.544L138.45 10.8625H135.019ZM140.106 22.5625H143.131V10.8625H140.106V22.5625ZM117.731 10.8625H108.844C106.969 11.0562 105.844 12.1125 105.844 13.675V19.75C106.038 21.5188 107.006 22.375 108.913 22.5625H117.731C119.744 22.4562 120.725 21.3125 120.725 19.75V13.675C120.725 12.125 119.538 11.0562 117.731 10.8625ZM117.675 18.7506C117.642 19.4394 117.056 19.9719 116.366 19.9381C116.363 19.9381 116.359 19.9375 116.356 19.9375H110.219C109.529 19.9769 108.939 19.4494 108.901 18.7594C108.9 18.7563 108.9 18.7538 108.9 18.7506V14.8125C108.906 14.0806 109.504 13.4925 110.236 13.4988C110.253 13.4988 110.271 13.4994 110.288 13.5H116.356C117.046 13.4612 117.636 13.9887 117.674 14.6781C117.674 14.6813 117.674 14.6844 117.675 14.6875V18.7506ZM78.5 10.8625C76.94 10.8625 75.675 12.1275 75.675 13.6875V19.75C75.675 21.3125 76.7625 22.375 78.5625 22.575H87.1256C88.9437 22.375 90.0125 21.325 90.0125 19.75V15.1875H80.625V18.1187H87.0438V18.8319C87.0269 19.5094 86.4725 20.0506 85.7938 20.0506H79.8812C79.2031 20.0506 78.6481 19.5094 78.6312 18.8319V14.6438C78.6581 13.9481 79.2287 13.3969 79.925 13.3938H90V10.8938L78.5 10.8625Z" fill="white"/>
</g>
</svg>
