<svg width="484" height="61" viewBox="0 0 484 61" fill="none" xmlns="http://www.w3.org/2000/svg">
<mask id="mask0_796_169" style="mask-type:alpha" maskUnits="userSpaceOnUse" x="0" y="0" width="484" height="61">
<path d="M0 0.1875H483.333V60.3574H0V0.1875Z" fill="white"/>
</mask>
<g mask="url(#mask0_796_169)">
<path fill-rule="evenodd" clip-rule="evenodd" d="M482.878 60.3573L482.802 58.1047H0.454688L0.473633 60.3573H482.878ZM179.98 35.5977C175.585 36.581 171.474 37.4922 171.474 40.4837C171.474 43.155 173.672 43.9317 175.68 43.9317C181.155 43.9317 183.675 39.1007 184.452 34.1768C183.006 34.7793 181.509 35.2548 179.98 35.5977ZM199.267 28.4724L194.398 50.2974H181.42L182.311 46.0536C178.141 49.5964 172.813 51.4777 167.344 51.3394C162.267 51.3394 156.981 48.6681 156.981 42.8329C157.112 39.059 158.987 35.5579 162.058 33.3603C166.586 30.1964 173.103 29.5712 180.037 28.7565C183.826 28.264 186.498 27.3735 186.498 24.6265C186.498 22.4288 183.751 21.9552 182.102 21.9552C179.431 21.9552 177.025 22.7698 176.078 25.4601H162.93C165.468 15.5706 176.191 14.0929 184.906 14.0929C190.874 14.0929 200.063 14.4339 200.063 22.3909C200.059 24.4806 199.803 26.5589 199.305 28.586L199.267 28.4724ZM156.905 29.0218L152.112 50.2974H138.509L142.772 31.6931C142.994 30.7496 143.115 29.7834 143.132 28.8134C143.408 26.7389 141.952 24.8349 139.877 24.5583C139.561 24.5166 139.242 24.5128 138.926 24.5507C134.531 24.5507 132.2 28.5481 131.348 32.2425L127.218 50.2974H113.672L121.705 15.0022H133.981L132.617 21.3868C136.046 17.4841 141.616 13.9792 146.826 13.9792C153.343 13.9792 157.682 16.9347 157.682 23.6034C157.657 25.4297 157.422 27.2485 156.981 29.0218H156.905ZM96.2233 22.012C92.0704 21.9078 88.4689 24.869 87.7736 28.9649H101.585C101.676 28.4591 101.725 27.9457 101.736 27.4304C101.869 24.5658 99.6523 22.1389 96.7878 22.0082C96.6003 21.9988 96.4108 22.0006 96.2233 22.012ZM113.672 35.3874H86.4096C86.2542 36.0789 86.1671 36.7837 86.1443 37.4922C86.078 40.6296 88.5693 43.227 91.7067 43.2933C91.8355 43.2952 91.9643 43.2933 92.0932 43.2876C94.5466 43.3179 96.8674 42.1774 98.3451 40.2185H111.323C106.946 48.2513 98.6482 51.3394 89.9902 51.3394C80.707 51.3394 72.8258 47.1524 72.8258 37.5093C73.0323 24.3063 83.9031 13.7708 97.1042 13.9773C97.1516 13.9773 97.1989 13.9792 97.2463 13.9792C107.837 13.9792 114.43 19.9659 114.43 29.628C114.38 31.5453 114.125 33.4493 113.672 35.3116V35.3874ZM73.0342 22.5614H66.157L63.2205 35.8231C62.9856 36.5772 62.8643 37.3634 62.8605 38.1534C62.8605 40.4837 65.0582 40.711 67.0664 40.711H68.7715L66.6496 50.1837C63.9594 50.3163 61.3449 50.4679 58.6736 50.4679C54.2783 50.4679 48.1021 50.6782 48.1021 44.6895C48.1874 42.454 48.5303 40.2355 49.1252 38.0776L52.649 22.6183H47.5527L49.2578 15.0401H54.5625L57.0254 3.8624H70.4197L67.8811 15.0401H74.7582L73.0342 22.6183V22.5614ZM36.8486 14.4718C35.1814 11.2378 31.7656 9.29213 28.1338 9.5081C23.6059 9.5081 20.9914 11.4026 20.9914 13.7708C20.9914 16.7452 25.8035 18.1093 31.165 19.8901C39.0463 22.6372 45.1656 25.8579 45.1656 32.7919C45.1656 43.3634 33.6279 51.6046 19.0021 51.6046C10.7609 51.6046 0.738867 47.5503 0 38.7028L11.5188 36.6378C12.2766 40.1427 17.3539 41.8667 20.442 41.8667C24.0227 41.8667 29.5736 40.7679 29.5736 36.5241C29.5736 33.4171 24.4963 32.053 19.1348 30.2722C13.7732 28.4913 5.87305 25.3085 5.87305 17.6356C5.89199 4.71494 19.6842 0.187012 28.9674 0.187012C35.9961 0.187012 46.2645 3.19932 48.0643 12.0468L36.8486 14.4718ZM468.48 27.923H474.77C479.847 28.2261 483.333 30.1774 483.333 36.5052V41.8667C483.333 48.4028 479.828 50.1837 474.77 50.4868H441.994V42.6056H472.176C472.176 42.6056 473.936 42.814 473.879 40.5974V38.7028C473.879 36.6207 472.269 36.8083 472.269 36.8083H448.419C444.294 36.8481 440.922 33.5383 440.882 29.4139C440.88 29.0995 440.897 28.785 440.933 28.4724V23.5466C440.933 16.9536 444.722 14.9265 449.764 14.9265H482.444V22.6751H452.793C452.793 22.6751 450.501 22.4667 450.501 24.4181V26.4073C450.501 28.1503 453.079 27.923 453.079 27.923H468.48ZM288.689 42.8897V14.9265H279.898V50.3921H316.993V42.8897H288.689ZM409.276 14.9265L393.816 41.071L378.433 14.9265H368.013L388.909 50.3921H398.742L419.677 14.9265H409.276ZM424.697 50.3921H433.867V14.9265H424.697V50.3921ZM356.873 14.9265H329.935C324.251 15.5138 320.839 18.7155 320.839 23.4519V41.8667C321.426 47.2282 324.363 49.8237 330.141 50.3921H356.873C362.973 50.07 365.948 46.603 365.948 41.8667V23.4519C365.948 18.7534 362.348 15.5138 356.873 14.9265ZM356.702 38.8373C356.602 40.9251 354.825 42.5393 352.735 42.437C352.726 42.437 352.714 42.4351 352.705 42.4351H334.101C332.011 42.5544 330.223 40.9554 330.105 38.8639C330.103 38.8544 330.103 38.8468 330.103 38.8373V26.8999C330.122 24.6814 331.935 22.8987 334.154 22.9176C334.205 22.9176 334.258 22.9195 334.309 22.9214H352.705C354.795 22.8039 356.583 24.4029 356.7 26.4926C356.7 26.5021 356.701 26.5115 356.702 26.521V38.8373ZM237.953 14.9265C233.224 14.9265 229.39 18.761 229.39 23.4897V41.8667C229.39 46.603 232.686 49.8237 238.143 50.43H264.1C269.611 49.8237 272.85 46.6409 272.85 41.8667V28.0366H244.395V36.922H263.851V39.0836C263.8 41.1373 262.12 42.778 260.062 42.778H242.14C240.084 42.778 238.402 41.1373 238.351 39.0836V26.3884C238.432 24.2798 240.162 22.6088 242.273 22.5993H272.813V15.0212L237.953 14.9265Z" fill="#0B0F16"/>
</g>
</svg>
