<svg width="50" height="50" viewBox="0 0 50 50" fill="none" xmlns="http://www.w3.org/2000/svg">
<path d="M23.2793 25.9846L25.4193 20.2002H26.9993L26.1593 22.458H28.2393L29.0793 20.2002H30.6493L28.5093 25.9846H26.8793L27.7193 23.7268H25.6393L24.7993 25.9846H23.2793Z" fill="#10141B"/>
<path d="M32.7504 20.2002L32.4205 24.2762H32.4705L35.1705 20.2002H36.9404L32.8804 25.9846H30.7305L30.9705 20.2002H32.7504Z" fill="#10141B"/>
<path d="M38.9009 20.2002L38.5709 24.2762L41.2809 20.2002H43.0509L38.9909 25.9846H36.8809L37.1209 20.2002H38.9009Z" fill="#10141B"/>
<path d="M38 11H12C8.13401 11 5 14.131 5 17.9932V35.0068C5 38.869 8.13401 42 12 42H38C41.866 42 45 38.869 45 35.0068V17.9932C45 14.131 41.866 11 38 11Z" stroke="#10141B" stroke-width="1.5" stroke-linecap="round" stroke-linejoin="round"/>
<path d="M5 26.2653H17.83C18.3494 26.2377 18.8489 26.0569 19.2654 25.7458C19.682 25.4346 19.9968 25.0069 20.17 24.517L22.28 19.5718C22.4556 19.0833 22.771 18.6571 23.187 18.3463C23.6031 18.0355 24.1014 17.8537 24.6201 17.8235H44.88" stroke="#10141B" stroke-width="1.5" stroke-linecap="round" stroke-linejoin="round"/>
</svg>
