<svg width="50" height="50" viewBox="0 0 50 50" fill="none" xmlns="http://www.w3.org/2000/svg">
<path d="M9.87888 20.9595C9.87888 19.7375 8.89819 18.7468 7.68846 18.7468C6.47872 18.7468 5.49805 19.7375 5.49805 20.9595V37.3207C5.49805 38.5427 6.47872 39.5334 7.68846 39.5334C8.89819 39.5334 9.87888 38.5427 9.87888 37.3207V20.9595Z" stroke="#10141B" stroke-width="1.5" stroke-linecap="round" stroke-linejoin="round"/>
<path d="M14.2793 18.4934C14.2793 17.2714 13.2986 16.2808 12.0889 16.2808C10.8791 16.2808 9.89844 17.2714 9.89844 18.4934V39.7874C9.89844 41.0094 10.8791 42 12.0889 42C13.2986 42 14.2793 41.0094 14.2793 39.7874V18.4934Z" stroke="#10141B" stroke-width="1.5" stroke-linecap="round" stroke-linejoin="round"/>
<path d="M40.1114 37.3311C40.1114 38.5531 41.092 39.5437 42.3018 39.5437C43.5115 39.5437 44.4922 38.5531 44.4922 37.3311V20.9699C44.4922 19.7479 43.5115 18.7572 42.3018 18.7572C41.092 18.7572 40.1114 19.7479 40.1114 20.9699V37.3311Z" stroke="#10141B" stroke-width="1.5" stroke-linecap="round" stroke-linejoin="round"/>
<path d="M35.711 39.7872C35.711 41.0092 36.6917 41.9998 37.9014 41.9998C39.1111 41.9998 40.0918 41.0092 40.0918 39.7872V18.4931C40.0918 17.2711 39.1111 16.2805 37.9014 16.2805C36.6917 16.2805 35.711 17.2711 35.711 18.4931V39.7872Z" stroke="#10141B" stroke-width="1.5" stroke-linecap="round" stroke-linejoin="round"/>
<path d="M35.6908 26.2778H14.2891V32.0124H35.6908V26.2778Z" stroke="#10141B" stroke-width="1.5" stroke-linecap="round" stroke-linejoin="round"/>
<path d="M5.20524 25.8616H5.48658V32.3269H5.20524C4.35516 32.3269 3.53991 31.9858 2.93881 31.3786C2.33771 30.7714 2 29.9479 2 29.0892V29.0892C2.00266 28.2322 2.34154 27.4113 2.94235 26.8063C3.54316 26.2013 4.3569 25.8616 5.20524 25.8616Z" stroke="#10141B" stroke-width="1.5" stroke-linecap="round" stroke-linejoin="round"/>
<path d="M44.7948 32.3774H44.5134V25.9121H44.7948C45.6448 25.9121 46.4601 26.2532 47.0612 26.8604C47.6623 27.4676 48 28.2911 48 29.1498V29.1498C47.9973 30.0067 47.6585 30.8277 47.0577 31.4327C46.4568 32.0377 45.6431 32.3774 44.7948 32.3774Z" stroke="#10141B" stroke-width="1.5" stroke-linecap="round" stroke-linejoin="round"/>
<path d="M24.9915 19.2651C29.1645 19.2651 32.5474 15.8479 32.5474 11.6326C32.5474 7.41722 29.1645 4 24.9915 4C20.8185 4 17.4355 7.41722 17.4355 11.6326C17.4355 15.8479 20.8185 19.2651 24.9915 19.2651Z" stroke="#10141B" stroke-width="1.5" stroke-linecap="round" stroke-linejoin="round"/>
<path d="M23.05 13.1704C22.9833 13.4495 22.9833 13.7394 23.0502 14.0185C23.1172 14.2976 23.2492 14.5588 23.4365 14.7826C23.6239 15.0064 23.8617 15.1871 24.1324 15.3113C24.4031 15.4355 24.6996 15.5 25 15.5C25.3004 15.5 25.597 15.4355 25.8676 15.3113C26.1383 15.1871 26.3762 15.0064 26.5635 14.7826C26.7508 14.5588 26.8828 14.2976 26.9497 14.0185C27.0166 13.7394 27.0168 13.4495 26.95 13.1704C26.95 12.1411 26.03 11.6265 25 11.2644C23.97 10.9022 23 10.4352 23 9.35833C23 8.86546 23.2054 8.39273 23.5711 8.04421C23.9368 7.6957 24.4329 7.5 24.95 7.5C25.4672 7.5 25.9632 7.6957 26.3289 8.04421C26.6946 8.39273 26.9 8.86546 26.9 9.35833" stroke="#10141B" stroke-width="1.5" stroke-linecap="round" stroke-linejoin="round"/>
<path d="M25 7.40332V6.5" stroke="#10141B" stroke-width="1.5" stroke-linecap="round" stroke-linejoin="round"/>
<path d="M24.9902 16.9951V16.0918" stroke="#10141B" stroke-width="1.5" stroke-linecap="round" stroke-linejoin="round"/>
</svg>
