<svg fill="#fff" class="svg-icon" xmlns="http://www.w3.org/2000/svg" xmlns:xlink="http://www.w3.org/1999/xlink"><defs><symbol viewBox="0 0 22 22" fill="none" id="faq_sprite">
<path d="M11 0.5C11.3481 0.5 11.6819 0.638281 11.9281 0.884423C12.1742 1.13056 12.3125 1.4644 12.3125 1.8125V9.6875H20.1875C20.5356 9.6875 20.8694 9.82578 21.1156 10.0719C21.3617 10.3181 21.5 10.6519 21.5 11C21.5 11.3481 21.3617 11.6819 21.1156 11.9281C20.8694 12.1742 20.5356 12.3125 20.1875 12.3125H12.3125V20.1875C12.3125 20.5356 12.1742 20.8694 11.9281 21.1156C11.6819 21.3617 11.3481 21.5 11 21.5C10.6519 21.5 10.3181 21.3617 10.0719 21.1156C9.82578 20.8694 9.6875 20.5356 9.6875 20.1875V12.3125H1.8125C1.4644 12.3125 1.13056 12.1742 0.884423 11.9281C0.638281 11.6819 0.5 11.3481 0.5 11C0.5 10.6519 0.638281 10.3181 0.884423 10.0719C1.13056 9.82578 1.4644 9.6875 1.8125 9.6875H9.6875V1.8125C9.6875 1.4644 9.82578 1.13056 10.0719 0.884423C10.3181 0.638281 10.6519 0.5 11 0.5Z" fill="white" />
</symbol></defs></svg>