<svg fill="#fff" class="svg-icon" xmlns="http://www.w3.org/2000/svg" xmlns:xlink="http://www.w3.org/1999/xlink"><defs><symbol viewBox="0 0 12 12" fill="none" id="arrow_sprite">
<path d="M9.75 4.5L6 8.25L2.25 4.5" stroke="#0B0F16" stroke-linecap="round" stroke-linejoin="round" />
</symbol><symbol viewBox="0 0 24 24" fill="none" id="clip_sprite">
<g clip-path="url(#clip_sprite_clip0_970_5188)">
<rect x="2.75" y="2.75" width="18.5" height="18.5" rx="6.28499" stroke="white" stroke-width="1.5" />
<path d="M8.18359 10.2559L11.9999 6.51096L15.8162 10.2559" stroke="white" stroke-width="1.5" stroke-linecap="round" stroke-linejoin="round" />
<path d="M12 6.80406L12 14.4889" stroke="white" stroke-width="1.5" stroke-linecap="round" />
<path d="M16.5 17.4889L7.5 17.4889" stroke="white" stroke-width="1.5" stroke-linecap="round" />
</g>
<defs>

</defs>
</symbol><clipPath id="clip_sprite_clip0_970_5188">
<rect width="24" height="24" fill="white" />
</clipPath><symbol viewBox="0 0 24 24" fill="none" id="close_sprite">
<path d="M18.75 5.25L5.25 18.75" stroke="#0B0F16" stroke-width="2" stroke-linecap="round" stroke-linejoin="round" />
<path d="M18.75 18.75L5.25 5.25" stroke="#0B0F16" stroke-width="2" stroke-linecap="round" stroke-linejoin="round" />
</symbol><symbol viewBox="0 0 22 22" fill="none" id="faq_sprite">
<path d="M11 0.5C11.3481 0.5 11.6819 0.638281 11.9281 0.884423C12.1742 1.13056 12.3125 1.4644 12.3125 1.8125V9.6875H20.1875C20.5356 9.6875 20.8694 9.82578 21.1156 10.0719C21.3617 10.3181 21.5 10.6519 21.5 11C21.5 11.3481 21.3617 11.6819 21.1156 11.9281C20.8694 12.1742 20.5356 12.3125 20.1875 12.3125H12.3125V20.1875C12.3125 20.5356 12.1742 20.8694 11.9281 21.1156C11.6819 21.3617 11.3481 21.5 11 21.5C10.6519 21.5 10.3181 21.3617 10.0719 21.1156C9.82578 20.8694 9.6875 20.5356 9.6875 20.1875V12.3125H1.8125C1.4644 12.3125 1.13056 12.1742 0.884423 11.9281C0.638281 11.6819 0.5 11.3481 0.5 11C0.5 10.6519 0.638281 10.3181 0.884423 10.0719C1.13056 9.82578 1.4644 9.6875 1.8125 9.6875H9.6875V1.8125C9.6875 1.4644 9.82578 1.13056 10.0719 0.884423C10.3181 0.638281 10.6519 0.5 11 0.5Z" fill="white" />
</symbol><symbol viewBox="0 0 100 96" fill="none" id="jobs_sprite">
<path d="M10.0781 35.3921C18.7346 48.1932 33.3858 56.6083 50.0024 56.6083C66.6191 56.6083 81.2702 48.1932 89.9268 35.3921" stroke="white" stroke-width="7.5" stroke-linecap="round" />
<path d="M9.37792 62.9605C8.14003 53.6763 7.26429 47.057 7.21641 41.9503C7.16927 36.922 7.94488 33.938 9.54922 31.6555C10.2131 30.711 10.9756 29.84 11.8241 29.0572C13.8745 27.1653 16.7299 26.0021 21.7203 25.3842C26.7885 24.7568 33.4655 24.75 42.8319 24.75H57.1681C66.5345 24.75 73.2115 24.7568 78.2797 25.3842C83.2701 26.0021 86.1255 27.1653 88.1759 29.0572C89.0244 29.84 89.7869 30.711 90.4508 31.6555L93.4591 29.5409L90.4508 31.6555C92.0551 33.938 92.8307 36.922 92.7836 41.9503C92.7357 47.057 91.86 53.6763 90.6221 62.9605C89.6491 70.2579 88.9548 75.424 87.9744 79.3695C87.0142 83.2338 85.8703 85.5154 84.2483 87.216C83.5757 87.9211 82.841 88.5643 82.0532 89.1378C80.1532 90.5209 77.7404 91.3532 73.783 91.7943C69.7427 92.2446 64.53 92.25 57.1681 92.25H42.8319C35.47 92.25 30.2573 92.2446 26.217 91.7943C22.2596 91.3532 19.8468 90.5209 17.9468 89.1378C17.159 88.5643 16.4243 87.9211 15.7517 87.216C14.1297 85.5154 12.9857 83.2338 12.0255 79.3695C11.0452 75.424 10.3509 70.2579 9.37792 62.9605Z" stroke="white" stroke-width="7.5" />
<path d="M30.0024 24.125V14.125C30.0024 8.60215 34.4796 4.125 40.0024 4.125H60.0024C65.5253 4.125 70.0024 8.60215 70.0024 14.125V24.125" stroke="white" stroke-width="7.5" stroke-linecap="round" stroke-linejoin="round" />
<rect x="39.3652" y="45.9744" width="21.2669" height="21.2669" rx="6.25" fill="#20252F" stroke="white" stroke-width="7.5" />
</symbol><symbol viewBox="0 0 24 24" fill="none" id="menu_sprite">
<path d="M3.75 15H20.25" stroke="currentColor" stroke-width="1.5" stroke-linecap="round" stroke-linejoin="round" />
<path d="M3.75 9H20.25" stroke="currentColor" stroke-width="1.5" stroke-linecap="round" stroke-linejoin="round" />
</symbol><symbol viewBox="0 0 38 48" fill="none" id="pin_sprite">
<path d="M35.5847 10.2196C34.1946 7.4787 32.1377 5.13125 29.6031 3.39306C27.0686 1.65488 24.1378 0.581739 21.0801 0.2723C19.6969 0.133517 18.3033 0.133517 16.9201 0.2723C13.8625 0.581942 10.9317 1.65505 8.39713 3.39303C5.86251 5.13101 3.80533 7.47811 2.4146 10.2187C0.664848 13.7155 -0.0110079 17.6519 0.472156 21.5321C0.955319 25.4123 2.57589 29.0627 5.12976 32.0236L17.5834 47.1647C17.7554 47.374 17.9716 47.5425 18.2165 47.6582C18.4614 47.7739 18.7288 47.8339 18.9997 47.8339C19.2705 47.8339 19.538 47.7739 19.7828 47.6582C20.0277 47.5425 20.2439 47.374 20.4159 47.1647L32.8696 32.0236C35.4234 29.0629 37.044 25.4126 37.5271 21.5325C38.0103 17.6525 37.3344 13.7163 35.5847 10.2196ZM18.9997 25.8334C17.5493 25.8334 16.1314 25.4033 14.9255 24.5975C13.7195 23.7917 12.7796 22.6464 12.2245 21.3064C11.6695 19.9664 11.5243 18.4919 11.8072 17.0694C12.0902 15.6468 12.7886 14.3402 13.8142 13.3146C14.8398 12.289 16.1465 11.5906 17.569 11.3076C18.9915 11.0246 20.466 11.1699 21.806 11.7249C23.146 12.28 24.2913 13.2199 25.0971 14.4259C25.9029 15.6318 26.333 17.0496 26.333 18.5C26.3307 20.4443 25.5574 22.3082 24.1826 23.683C22.8078 25.0577 20.9439 25.8311 18.9997 25.8334Z" fill="#E82D42" />
</symbol><symbol viewBox="0 0 20 20" fill="none" id="route_sprite">
<path d="M15.625 17.5C16.6605 17.5 17.5 16.6605 17.5 15.625C17.5 14.5895 16.6605 13.75 15.625 13.75C14.5895 13.75 13.75 14.5895 13.75 15.625C13.75 16.6605 14.5895 17.5 15.625 17.5Z" stroke="#0B0F16" stroke-width="1.5" stroke-linecap="round" stroke-linejoin="round" />
<path d="M5.625 4.375H13.125C13.788 4.375 14.4239 4.63839 14.8928 5.10723C15.3616 5.57607 15.625 6.21196 15.625 6.875C15.625 7.53804 15.3616 8.17393 14.8928 8.64277C14.4239 9.11161 13.788 9.375 13.125 9.375H5.625C4.7962 9.375 4.00134 9.70424 3.41529 10.2903C2.82924 10.8763 2.5 11.6712 2.5 12.5C2.5 13.3288 2.82924 14.1237 3.41529 14.7097C4.00134 15.2958 4.7962 15.625 5.625 15.625H13.75" stroke="#0B0F16" stroke-width="1.5" stroke-linecap="round" stroke-linejoin="round" />
</symbol><symbol viewBox="0 0 24 24" fill="none" id="ship_sprite">
<path d="M12 4.5V2.25" stroke="#0B0F16" stroke-width="1.5" stroke-linecap="round" stroke-linejoin="round" />
<path d="M21 14.9998C19.6312 19.781 13.2938 21.4498 12.1688 21.7123C12.058 21.7405 11.942 21.7405 11.8312 21.7123C10.7062 21.4498 4.36875 19.781 3 14.9998V11.7935C2.99999 11.6356 3.04983 11.4817 3.14241 11.3538C3.235 11.2258 3.36561 11.1304 3.51562 11.081L11.7656 8.3248C11.9183 8.2778 12.0817 8.2778 12.2344 8.3248L20.4844 11.081C20.6344 11.1304 20.765 11.2258 20.8576 11.3538C20.9502 11.4817 21 11.6356 21 11.7935V14.9998Z" stroke="#0B0F16" stroke-width="1.5" stroke-linecap="round" stroke-linejoin="round" />
<path d="M12 15.7501V8.2876" stroke="#0B0F16" stroke-width="1.5" stroke-linecap="round" stroke-linejoin="round" />
<path d="M5.25 10.5V5.25C5.25 5.05109 5.32902 4.86032 5.46967 4.71967C5.61032 4.57902 5.80109 4.5 6 4.5H18C18.1989 4.5 18.3897 4.57902 18.5303 4.71967C18.671 4.86032 18.75 5.05109 18.75 5.25V10.5" stroke="#0B0F16" stroke-width="1.5" stroke-linecap="round" stroke-linejoin="round" />
</symbol></defs></svg>