<svg width="100" height="96" viewBox="0 0 100 96" fill="none" xmlns="http://www.w3.org/2000/svg">
<path d="M10.0781 35.3921C18.7346 48.1932 33.3858 56.6083 50.0024 56.6083C66.6191 56.6083 81.2702 48.1932 89.9268 35.3921" stroke="white" stroke-width="7.5" stroke-linecap="round"/>
<path d="M9.37792 62.9605C8.14003 53.6763 7.26429 47.057 7.21641 41.9503C7.16927 36.922 7.94488 33.938 9.54922 31.6555C10.2131 30.711 10.9756 29.84 11.8241 29.0572C13.8745 27.1653 16.7299 26.0021 21.7203 25.3842C26.7885 24.7568 33.4655 24.75 42.8319 24.75H57.1681C66.5345 24.75 73.2115 24.7568 78.2797 25.3842C83.2701 26.0021 86.1255 27.1653 88.1759 29.0572C89.0244 29.84 89.7869 30.711 90.4508 31.6555L93.4591 29.5409L90.4508 31.6555C92.0551 33.938 92.8307 36.922 92.7836 41.9503C92.7357 47.057 91.86 53.6763 90.6221 62.9605C89.6491 70.2579 88.9548 75.424 87.9744 79.3695C87.0142 83.2338 85.8703 85.5154 84.2483 87.216C83.5757 87.9211 82.841 88.5643 82.0532 89.1378C80.1532 90.5209 77.7404 91.3532 73.783 91.7943C69.7427 92.2446 64.53 92.25 57.1681 92.25H42.8319C35.47 92.25 30.2573 92.2446 26.217 91.7943C22.2596 91.3532 19.8468 90.5209 17.9468 89.1378C17.159 88.5643 16.4243 87.9211 15.7517 87.216C14.1297 85.5154 12.9857 83.2338 12.0255 79.3695C11.0452 75.424 10.3509 70.2579 9.37792 62.9605Z" stroke="white" stroke-width="7.5"/>
<path d="M30.0024 24.125V14.125C30.0024 8.60215 34.4796 4.125 40.0024 4.125H60.0024C65.5253 4.125 70.0024 8.60215 70.0024 14.125V24.125" stroke="white" stroke-width="7.5" stroke-linecap="round" stroke-linejoin="round"/>
<rect x="39.3652" y="45.9744" width="21.2669" height="21.2669" rx="6.25" fill="#20252F" stroke="white" stroke-width="7.5"/>
</svg>
