<svg width="50" height="50" viewBox="0 0 50 50" fill="none" xmlns="http://www.w3.org/2000/svg">
<path d="M38 16.103H12C8.13401 16.103 5 19.2309 5 23.0892V36.0137C5 39.8721 8.13401 42.9999 12 42.9999H38C41.866 42.9999 45 39.8721 45 36.0137V23.0892C45 19.2309 41.866 16.103 38 16.103Z" stroke="#10141B" stroke-width="1.5" stroke-linecap="round" stroke-linejoin="round"/>
<path d="M36.2805 38.5685H13.7005C13.7005 37.4727 13.2643 36.4218 12.4879 35.6469C11.7115 34.872 10.6585 34.4368 9.56055 34.4368V24.656C10.6585 24.656 11.7115 24.2208 12.4879 23.4459C13.2643 22.671 13.7005 21.62 13.7005 20.5242H36.2805C36.2805 21.62 36.7167 22.671 37.4931 23.4459C38.2695 24.2208 39.3225 24.656 40.4205 24.656V34.4368C39.3225 34.4368 38.2695 34.872 37.4931 35.6469C36.7167 36.4218 36.2805 37.4727 36.2805 38.5685Z" stroke="#10141B" stroke-width="1.5" stroke-linecap="round" stroke-linejoin="round"/>
<path d="M24.9996 34.6965C27.8439 34.6965 30.1496 32.3953 30.1496 29.5566C30.1496 26.7179 27.8439 24.4167 24.9996 24.4167C22.1553 24.4167 19.8496 26.7179 19.8496 29.5566C19.8496 32.3953 22.1553 34.6965 24.9996 34.6965Z" stroke="#10141B" stroke-width="1.5" stroke-linecap="round" stroke-linejoin="round"/>
<path d="M44.8102 16.0426C44.4785 14.7605 43.7303 13.6242 42.6827 12.8116C41.635 11.999 40.347 11.5558 39.0202 11.5515H11.0202C9.69508 11.558 8.40938 12.0022 7.36377 12.8146C6.31816 13.6271 5.5715 14.7621 5.24023 16.0426" stroke="#10141B" stroke-width="1.5" stroke-linecap="round" stroke-linejoin="round"/>
<path d="M44.8102 11.4911C44.4785 10.209 43.7303 9.07259 42.6827 8.25996C41.635 7.44734 40.347 7.0043 39.0202 7H11.0202C9.69508 7.0065 8.40938 7.45056 7.36377 8.26301C6.31816 9.07546 5.5715 10.2106 5.24023 11.4911" stroke="#10141B" stroke-width="1.5" stroke-linecap="round" stroke-linejoin="round"/>
</svg>
