<svg width="50" height="50" viewBox="0 0 50 50" fill="none" xmlns="http://www.w3.org/2000/svg">
<path d="M26.75 9.66211H34.46" stroke="#10141B" stroke-width="1.5" stroke-linecap="round" stroke-linejoin="round"/>
<path d="M15.4512 9.66211H23.3212" stroke="#10141B" stroke-width="1.5" stroke-linecap="round" stroke-linejoin="round"/>
<path d="M38 9.6521C39.8565 9.6521 41.637 10.39 42.9498 11.7034C44.2625 13.0168 45 14.7982 45 16.6556V33.6641C45 35.5216 44.2625 37.303 42.9498 38.6164C41.637 39.9299 39.8565 40.6676 38 40.6676H12C10.1435 40.6676 8.36299 39.9299 7.05023 38.6164C5.73748 37.303 5 35.5216 5 33.6641V16.6556C5 14.7982 5.73748 13.0168 7.05023 11.7034C8.36299 10.39 10.1435 9.6521 12 9.6521" stroke="#10141B" stroke-width="1.5" stroke-linecap="round" stroke-linejoin="round"/>
<path d="M15.4011 7.91035C15.4011 7.00415 14.6668 6.26953 13.7611 6.26953C12.8553 6.26953 12.1211 7.00415 12.1211 7.91035V10.9519C12.1211 11.8581 12.8553 12.5927 13.7611 12.5927C14.6668 12.5927 15.4011 11.8581 15.4011 10.9519V7.91035Z" stroke="#10141B" stroke-width="1.5" stroke-linecap="round" stroke-linejoin="round"/>
<path d="M26.6413 7.64082C26.6413 6.73462 25.9071 6 25.0013 6C24.0956 6 23.3613 6.73462 23.3613 7.64082V10.6823C23.3613 11.5885 24.0956 12.3232 25.0013 12.3232C25.9071 12.3232 26.6413 11.5885 26.6413 10.6823V7.64082Z" stroke="#10141B" stroke-width="1.5" stroke-linecap="round" stroke-linejoin="round"/>
<path d="M37.8796 7.64082C37.8796 6.73462 37.1454 6 36.2396 6C35.3339 6 34.5996 6.73462 34.5996 7.64082V10.6823C34.5996 11.5885 35.3339 12.3232 36.2396 12.3232C37.1454 12.3232 37.8796 11.5885 37.8796 10.6823V7.64082Z" stroke="#10141B" stroke-width="1.5" stroke-linecap="round" stroke-linejoin="round"/>
<path d="M5 17.2048H45" stroke="#10141B" stroke-width="1.5" stroke-linecap="round" stroke-linejoin="round"/>
<path d="M5.08984 39.4778C5.41863 40.7702 6.16823 41.9162 7.22028 42.735C8.27232 43.5539 9.56692 43.999 10.8998 44.0001H39.0898C40.4228 43.999 41.7174 43.5539 42.7695 42.735C43.8215 41.9162 44.5711 40.7702 44.8998 39.4778" stroke="#10141B" stroke-width="1.5" stroke-linecap="round" stroke-linejoin="round"/>
<path d="M30.8597 33.7734C32.3715 33.7734 33.8213 33.1725 34.8903 32.103C35.9592 31.0335 36.5598 29.583 36.5598 28.0705C36.5598 26.558 35.9592 25.1074 34.8903 24.0379C33.8213 22.9685 32.3715 22.3677 30.8597 22.3677C26.6397 22.4677 25.3697 25.8194 25.1797 28.2106C24.9897 30.6018 23.8798 33.9135 19.4598 33.7734C17.9529 33.7578 16.5121 33.1519 15.4465 32.0858C14.3809 31.0197 13.7754 29.5781 13.7598 28.0705C13.7598 27.3216 13.9072 26.58 14.1937 25.8881C14.4801 25.1962 14.9 24.5675 15.4293 24.0379C15.9586 23.5084 16.5869 23.0883 17.2784 22.8017C17.97 22.5151 18.7112 22.3677 19.4598 22.3677" stroke="#10141B" stroke-width="1.5" stroke-linecap="round" stroke-linejoin="round"/>
<path d="M18.3398 20.5269L20.3798 22.3678L18.3398 24.4088" stroke="#10141B" stroke-width="1.5" stroke-linecap="round" stroke-linejoin="round"/>
<path d="M31.7295 35.5648L29.6895 33.7239L31.7295 31.6829" stroke="#10141B" stroke-width="1.5" stroke-linecap="round" stroke-linejoin="round"/>
</svg>
