<svg width="50" height="50" viewBox="0 0 50 50" fill="none" xmlns="http://www.w3.org/2000/svg">
<path d="M26.7207 9.65039H34.6007" stroke="#10141B" stroke-width="1.5" stroke-linecap="round" stroke-linejoin="round"/>
<path d="M15.5195 9.65039H23.1695" stroke="#10141B" stroke-width="1.5" stroke-linecap="round" stroke-linejoin="round"/>
<path d="M38 9.65039C39.8565 9.65039 41.637 10.3883 42.9498 11.7018C44.2625 13.0153 45 14.7967 45 16.6543V33.6637C45 35.5212 44.2625 37.3027 42.9498 38.6162C41.637 39.9297 39.8565 40.6675 38 40.6675H12C10.1435 40.6675 8.36299 39.9297 7.05023 38.6162C5.73748 37.3027 5 35.5212 5 33.6637V16.6543C5 14.7967 5.73748 13.0153 7.05023 11.7018C8.36299 10.3883 10.1435 9.65039 12 9.65039" stroke="#10141B" stroke-width="1.5" stroke-linecap="round" stroke-linejoin="round"/>
<path d="M15.3991 7.90067C15.3991 6.99442 14.6649 6.25977 13.7591 6.25977C12.8534 6.25977 12.1191 6.99442 12.1191 7.90067V10.9424C12.1191 11.8486 12.8534 12.5833 13.7591 12.5833C14.6649 12.5833 15.3991 11.8486 15.3991 10.9424V7.90067Z" stroke="#10141B" stroke-width="1.5" stroke-linecap="round" stroke-linejoin="round"/>
<path d="M26.6394 7.64091C26.6394 6.73466 25.9051 6 24.9994 6C24.0936 6 23.3594 6.73466 23.3594 7.64091V10.6826C23.3594 11.5888 24.0936 12.3235 24.9994 12.3235C25.9051 12.3235 26.6394 11.5888 26.6394 10.6826V7.64091Z" stroke="#10141B" stroke-width="1.5" stroke-linecap="round" stroke-linejoin="round"/>
<path d="M37.8796 7.64091C37.8796 6.73466 37.1454 6 36.2396 6C35.3339 6 34.5996 6.73466 34.5996 7.64091V10.6826C34.5996 11.5888 35.3339 12.3235 36.2396 12.3235C37.1454 12.3235 37.8796 11.5888 37.8796 10.6826V7.64091Z" stroke="#10141B" stroke-width="1.5" stroke-linecap="round" stroke-linejoin="round"/>
<path d="M5 17.2053H45" stroke="#10141B" stroke-width="1.5" stroke-linecap="round" stroke-linejoin="round"/>
<path d="M5.08984 39.4775C5.41863 40.77 6.16817 41.916 7.22021 42.735C8.27226 43.5539 9.56692 43.999 10.8998 44.0001H39.0898C40.4228 43.999 41.7174 43.5539 42.7694 42.735C43.8215 41.916 44.5711 40.77 44.8998 39.4775" stroke="#10141B" stroke-width="1.5" stroke-linecap="round" stroke-linejoin="round"/>
<path d="M16.2108 32.0543V30.8738L19.3508 27.792C19.6508 27.4918 19.9008 27.2217 20.1008 26.9916C20.2829 26.7842 20.4345 26.5516 20.5508 26.3012C20.6511 26.0814 20.7023 25.8424 20.7008 25.6008C20.7048 25.3402 20.6355 25.0836 20.5008 24.8604C20.3745 24.6547 20.19 24.4911 19.9708 24.3902C19.7332 24.2789 19.4731 24.2241 19.2108 24.2301C18.9398 24.2235 18.6715 24.2853 18.4308 24.4101C18.2069 24.5243 18.0248 24.7064 17.9108 24.9304C17.7769 25.1718 17.7112 25.445 17.7208 25.7209H16.1708C16.1578 25.1971 16.293 24.6804 16.5608 24.2301C16.8183 23.8005 17.193 23.4534 17.6408 23.2295C18.1336 22.9818 18.6794 22.8582 19.2308 22.8693C19.7829 22.8605 20.3299 22.9768 20.8308 23.2095C21.2611 23.419 21.6272 23.7405 21.8908 24.1401C22.1515 24.5418 22.2871 25.0119 22.2808 25.4908C22.2792 25.8341 22.2113 26.1738 22.0808 26.4913C21.9084 26.8861 21.6794 27.2534 21.4008 27.5819C21.0708 27.9721 20.6208 28.4525 20.0308 29.0228L18.4808 30.6036V30.6736H22.4108V32.0344L16.2108 32.0543Z" fill="#10141B"/>
<path d="M27.1702 22.5894L24.5602 32.5949H23.1602L25.7702 22.5894H27.1702Z" fill="#10141B"/>
<path d="M30.5908 32.1742C30.046 32.1842 29.506 32.0714 29.0107 31.8441C28.5672 31.6435 28.1844 31.3294 27.9008 30.9336C27.631 30.5376 27.4816 30.0719 27.4707 29.5929H29.0607C29.0684 29.7696 29.1145 29.9426 29.1956 30.0999C29.2768 30.2571 29.3911 30.3948 29.5307 30.5034C29.8342 30.7369 30.208 30.8603 30.5908 30.8536C30.889 30.8604 31.1833 30.7842 31.4407 30.6335C31.6872 30.485 31.8906 30.2746 32.0307 30.0232C32.1737 29.7449 32.2459 29.4355 32.2407 29.1226C32.2489 28.805 32.1731 28.4909 32.0208 28.2121C31.8836 27.9499 31.6757 27.7315 31.4207 27.5817C31.1529 27.4295 30.8486 27.3534 30.5407 27.3617C30.2671 27.3619 29.9959 27.4128 29.7407 27.5118C29.508 27.5996 29.2966 27.7359 29.1207 27.9119L27.6407 27.6718L28.1107 23.0193H33.3607V24.39H29.4707L29.2108 26.7814H29.2607C29.4522 26.5606 29.6965 26.3918 29.9707 26.291C30.288 26.1613 30.628 26.0967 30.9707 26.1009C31.4757 26.0869 31.9746 26.2144 32.4111 26.4689C32.8475 26.7235 33.2042 27.095 33.4407 27.5417C33.6949 28.0147 33.8224 28.5456 33.8107 29.0826C33.8238 29.6438 33.682 30.1977 33.4008 30.6834C33.1309 31.147 32.7357 31.5251 32.2607 31.7741C31.7476 32.0487 31.1725 32.1865 30.5908 32.1742Z" fill="#10141B"/>
</svg>
