<svg width="50" height="50" viewBox="0 0 50 50" fill="none" xmlns="http://www.w3.org/2000/svg">
<path d="M11.7286 43C17.1015 43 21.4571 38.6756 21.4571 33.3413C21.4571 28.0069 17.1015 23.6826 11.7286 23.6826C6.35563 23.6826 2 28.0069 2 33.3413C2 38.6756 6.35563 43 11.7286 43Z" stroke="#10141B" stroke-width="1.5" stroke-linecap="round" stroke-linejoin="round"/>
<path d="M38.2715 43C43.6445 43 48.0001 38.6756 48.0001 33.3413C48.0001 28.0069 43.6445 23.6826 38.2715 23.6826C32.8986 23.6826 28.543 28.0069 28.543 33.3413C28.543 38.6756 32.8986 43 38.2715 43Z" stroke="#10141B" stroke-width="1.5" stroke-linecap="round" stroke-linejoin="round"/>
<path d="M32.7259 19.7971L21.6261 24.4674L11.7274 31.8705C11.6306 31.9467 11.5598 32.0507 11.5247 32.1683C11.4896 32.2859 11.4919 32.4115 11.5313 32.5278C11.5707 32.6441 11.6453 32.7454 11.7449 32.8181C11.8445 32.8907 11.9642 32.9311 12.0877 32.9337H25.3694C25.3694 32.9337 24.6488 25.4214 33.6567 21.7845" stroke="#10141B" stroke-width="1.5" stroke-linecap="round" stroke-linejoin="round"/>
<path d="M16.623 18.6345H21.4873" stroke="#10141B" stroke-width="1.5" stroke-linecap="round" stroke-linejoin="round"/>
<path d="M25.3803 32.9039L19.0547 18.6345" stroke="#10141B" stroke-width="1.5" stroke-linecap="round" stroke-linejoin="round"/>
<path d="M38.2627 32.9023L30.9163 15.1352C30.9163 15.1352 33.5886 14.3999 33.4685 12.3628C33.2984 9.58048 29.545 9.9779 28.334 10.0773" stroke="#10141B" stroke-width="1.5" stroke-linecap="round" stroke-linejoin="round"/>
</svg>
